<svg id="heathCare" xmlns="http://www.w3.org/2000/svg" viewBox="0 0 394.29 255.43"><defs><style>.cls-1{fill:#f15a24;}.cls-2{fill:#fff;}.cls-3{fill:#d44700;}.cls-4{fill:#ccc;}.cls-5{fill:#333;}.cls-6{fill:none;stroke:#333;stroke-miterlimit:10;stroke-width:3px;}</style></defs><path class="cls-1" d="M322.86,215.86c109.71,0,191.14,32.57,191.14,32.57s124.29-25.72,203.14-25.72l-1.71,217.72c-161.14,0-191.14,30.86-191.14,30.86s-49.72-36-200.58-34.29Z" transform="translate(-322.86 -215.86)"/><path class="cls-2" d="M701.71,239l-.85,187.71c-133.42,0-180.37,23.82-180.37,23.82s-3-8.73-12.53-19.9c-16.52-19.42-52.63-46.24-126.53-47.59q-4.76-.1-9.72,0L336.57,226.14c90.84,0,175.4,37.59,175.4,37.59S636.42,239,701.71,239Z" transform="translate(-322.86 -215.86)"/><path class="cls-3" d="M508,430.63c-24.51-7.15-107.24-29-132-6.49,0,0,3.3-17.3,5.43-41.1C455.33,384.39,491.44,411.21,508,430.63Z" transform="translate(-322.86 -215.86)"/><path class="cls-4" d="M513.14,311.86,520,428.43s-13.71-52.29-31.71-65.14c0,0,17.14-20.58,17.14-49.72s6-41.14,6-41.14Z" transform="translate(-322.86 -215.86)"/><path class="cls-5" d="M663.15,261.36a231.79,231.79,0,0,0-109.34,19.82c-1.76.79-.24,3.38,1.51,2.6A229.35,229.35,0,0,1,639,264.11a227,227,0,0,1,24.19.25c1.93.12,1.92-2.88,0-3Z" transform="translate(-322.86 -215.86)"/><path class="cls-5" d="M563.6,327.7A220.84,220.84,0,0,1,664,305.33c1.93,0,1.93-3,0-3A224.7,224.7,0,0,0,583.35,316a227.4,227.4,0,0,0-21.26,9.08c-1.73.85-.22,3.44,1.51,2.59Z" transform="translate(-322.86 -215.86)"/><path class="cls-5" d="M471.09,274.31a225.41,225.41,0,0,0-78.75-21.93,221.22,221.22,0,0,0-23.17-.85c-1.93,0-1.93,3,0,3A222.18,222.18,0,0,1,448.6,268a218.49,218.49,0,0,1,21,8.93c1.73.85,3.25-1.74,1.52-2.59Z" transform="translate(-322.86 -215.86)"/><ellipse class="cls-6" cx="430" cy="320" rx="27.87" ry="40.27" transform="translate(-420.7 197.33) rotate(-46.67)"/><polygon class="cls-6" points="302.62 176.82 255.56 193.53 301.42 120.25 302.62 176.82"/></svg>