<svg id="heathCare" xmlns="http://www.w3.org/2000/svg" viewBox="0 0 227.43 458.01"><defs><style>.cls-1{fill:#9fcaff;}.cls-2{fill:#003474;}.cls-3{fill:#6da2ba;}</style></defs><path class="cls-1" d="M389,608.93a34.25,34.25,0,0,1-34.21-34.22V287.57A34.25,34.25,0,0,1,389,253.36H524.64V574.71a34.26,34.26,0,0,1-34.21,34.22Z" transform="translate(-353.29 -152.42)"/><path d="M523.14,254.86V574.71a32.75,32.75,0,0,1-32.71,32.72H389a32.75,32.75,0,0,1-32.71-32.72V287.57A32.74,32.74,0,0,1,389,254.86H523.14m3-3H389a35.71,35.71,0,0,0-35.71,35.71V574.71A35.71,35.71,0,0,0,389,610.43H490.43a35.71,35.71,0,0,0,35.71-35.72V251.86Z" transform="translate(-353.29 -152.42)"/><path class="cls-1" d="M481.64,253.2v-54c0-25,20-45.29,44.5-45.29h8.57c24,0,43.7,19.5,44.48,43.79H524.64V253.2Z" transform="translate(-353.29 -152.42)"/><path d="M534.7,155.42c22.73,0,41.4,18,42.91,40.79H523.14V251.7h-40V199.21c0-24.15,19.29-43.79,43-43.79h8.56m0-3h-8.56c-25.4,0-46,20.94-46,46.79V254.7h46V199.21h54.57c0-25.85-20.59-46.79-46-46.79Z" transform="translate(-353.29 -152.42)"/><path class="cls-2" d="M389.5,521.64V372.7a53,53,0,0,1,6.49,1.73,36.63,36.63,0,0,0,10.72,2.13h0a16.47,16.47,0,0,0,2.93-.25V521.64Z" transform="translate(-353.29 -152.42)"/><path d="M391,374.55c1.57.38,3.11.87,4.55,1.32,3.74,1.15,7.4,2.19,11.16,2.19.48,0,1,0,1.43-.05V520.14H391V374.55M388,371V523.14h23.14V374.39l-.61.19a14.55,14.55,0,0,1-3.82.48A35.71,35.71,0,0,1,396.44,373a45.14,45.14,0,0,0-8.44-2Z" transform="translate(-353.29 -152.42)"/><path class="cls-3" d="M406.71,373.56c-3.13,0-6.3-.9-9.83-2a54.09,54.09,0,0,0-7.38-1.92V262.36h20.14v110.9A13.59,13.59,0,0,1,406.71,373.56Z" transform="translate(-353.29 -152.42)"/><path d="M408.14,263.86V372a13.17,13.17,0,0,1-1.43.07,32.73,32.73,0,0,1-9.37-1.92A65.44,65.44,0,0,0,391,368.4V263.86h17.14m3-3H388V371a45.14,45.14,0,0,1,8.44,2,35.71,35.71,0,0,0,10.27,2.06,14.55,14.55,0,0,0,3.82-.48l.61-.19V260.86Z" transform="translate(-353.29 -152.42)"/><path class="cls-2" d="M441.21,521.64V374.75a22.84,22.84,0,0,1,12.25-3.54,24.41,24.41,0,0,1,7.9,1.34V521.64Z" transform="translate(-353.29 -152.42)"/><path d="M453.46,372.71h0a22.43,22.43,0,0,1,6.4.94V520.14H442.71V375.59a21.64,21.64,0,0,1,5.93-2.34,22,22,0,0,1,4.82-.54m0-3a24.71,24.71,0,0,0-5.49.62,24.44,24.44,0,0,0-8.26,3.61v149.2h23.15V371.51a25.58,25.58,0,0,0-9.4-1.8Z" transform="translate(-353.29 -152.42)"/><path class="cls-3" d="M441.21,262.36h20.15V369.57a25.1,25.1,0,0,0-7.9-1.3,23.94,23.94,0,0,0-5.86.73,24.49,24.49,0,0,0-6.39,2.63Z" transform="translate(-353.29 -152.42)"/><path d="M459.86,263.86V367.57a26.22,26.22,0,0,0-6.4-.8,25.49,25.49,0,0,0-6.23.77,26.16,26.16,0,0,0-4.52,1.61V263.86h17.15m3-3H439.71V374.43a23.42,23.42,0,0,1,8.26-4,22.14,22.14,0,0,1,5.49-.68,23.36,23.36,0,0,1,9.4,2V260.86Z" transform="translate(-353.29 -152.42)"/><path class="cls-2" d="M490.07,521.64V377.17a39.66,39.66,0,0,0,9.2,1.18,28.35,28.35,0,0,0,3.08-.16,27.79,27.79,0,0,0,7.86-2V521.64Z" transform="translate(-353.29 -152.42)"/><path d="M508.71,378.32V520.14H491.57V379a39.05,39.05,0,0,0,7.71.81,31,31,0,0,0,3.22-.17,29,29,0,0,0,6.21-1.36m3-4.54a26.17,26.17,0,0,1-9.52,2.92,28.5,28.5,0,0,1-2.91.15,41.26,41.26,0,0,1-10.71-1.6V523.14h23.14V373.78Z" transform="translate(-353.29 -152.42)"/><path class="cls-3" d="M499.27,375.35a37.76,37.76,0,0,1-9.2-1.26V262.36h20.14v110.5a25,25,0,0,1-8.18,2.35A27.56,27.56,0,0,1,499.27,375.35Z" transform="translate(-353.29 -152.42)"/><path d="M508.71,263.86v108a23.34,23.34,0,0,1-6.83,1.82c-.85.08-1.72.13-2.6.13a34.31,34.31,0,0,1-7.71-1v-109h17.14m3-3H488.57V375.25a41.26,41.26,0,0,0,10.71,1.6,28.5,28.5,0,0,0,2.91-.15,26.17,26.17,0,0,0,9.52-2.92V260.86Z" transform="translate(-353.29 -152.42)"/><path class="cls-2" d="M409.71,593.21A20.23,20.23,0,0,1,389.5,573V533.93H510.21V573A20.22,20.22,0,0,1,490,593.21Z" transform="translate(-353.29 -152.42)"/><path d="M508.71,535.43V573a18.72,18.72,0,0,1-18.7,18.7h-80.3A18.72,18.72,0,0,1,391,573V535.43H508.71m3-3H388V573a21.71,21.71,0,0,0,21.71,21.7H490a21.71,21.71,0,0,0,21.7-21.7V532.43Z" transform="translate(-353.29 -152.42)"/></svg>