<svg id="Layer_2" data-name="Layer 2" xmlns="http://www.w3.org/2000/svg" viewBox="0 0 197.43 197.43"><defs><style>.cls-1{fill:#4d4d4d;}.cls-2{fill:#999;}.cls-3{fill:#ab5fff;}.cls-4{fill:#662d91;}.cls-5{fill:#9d1fff;}</style></defs><circle class="cls-1" cx="98.72" cy="98.72" r="98.22"/><path class="cls-2" d="M683,449.86a97.72,97.72,0,1,1-97.72,97.71A97.83,97.83,0,0,1,683,449.86m0-1a98.72,98.72,0,1,0,98.72,98.71A98.71,98.71,0,0,0,683,448.86Z" transform="translate(-584.28 -448.86)"/><path class="cls-3" d="M618.57,571.5a23.93,23.93,0,1,1,23.93-23.93A24,24,0,0,1,618.57,571.5Z" transform="translate(-584.28 -448.86)"/><path class="cls-2" d="M618.57,524.14a23.43,23.43,0,1,1-23.43,23.43,23.46,23.46,0,0,1,23.43-23.43m0-1A24.43,24.43,0,1,0,643,547.57a24.43,24.43,0,0,0-24.43-24.43Z" transform="translate(-584.28 -448.86)"/><circle class="cls-4" cx="164.14" cy="98.72" r="23.93"/><path class="cls-2" d="M748.43,524.14A23.43,23.43,0,1,1,725,547.57a23.46,23.46,0,0,1,23.43-23.43m0-1a24.43,24.43,0,1,0,24.43,24.43,24.43,24.43,0,0,0-24.43-24.43Z" transform="translate(-584.28 -448.86)"/><circle class="cls-3" cx="98.72" cy="165.5" r="23.93"/><path class="cls-2" d="M683,590.93a23.43,23.43,0,1,1-23.43,23.43A23.46,23.46,0,0,1,683,590.93m0-1a24.43,24.43,0,1,0,24.43,24.43A24.43,24.43,0,0,0,683,589.93Z" transform="translate(-584.28 -448.86)"/><circle class="cls-5" cx="98.72" cy="34.29" r="23.93"/><path class="cls-2" d="M683,459.71a23.43,23.43,0,1,1-23.43,23.43A23.46,23.46,0,0,1,683,459.71m0-1a24.43,24.43,0,1,0,24.43,24.43A24.43,24.43,0,0,0,683,458.71Z" transform="translate(-584.28 -448.86)"/></svg>