<svg id="A" xmlns="http://www.w3.org/2000/svg" viewBox="0 0 296.57 149.73"><defs><style>.cls-1{fill:#4d4d4d;}.cls-2{fill:#999;}.cls-3{fill:#666;}.cls-4{fill:#9d1fff;}.cls-5{fill:#ab5fff;}.cls-6{fill:#662d91;}</style></defs><path class="cls-1" d="M436.19,327.37l208.4-148.73h45.69a5.8,5.8,0,0,1,5.79,5.79v13.32L514.45,327.37Z" transform="translate(-400 -178.14)"/><path class="cls-2" d="M690.28,179.14a5.29,5.29,0,0,1,5.29,5.29V197.5L514.29,326.87H437.75l207-147.73h45.53m0-1H644.43L434.63,327.87h80L696.57,198V184.43a6.29,6.29,0,0,0-6.29-6.29Z" transform="translate(-400 -178.14)"/><path class="cls-3" d="M406.29,327.37a5.8,5.8,0,0,1-5.79-5.79V184.43a5.8,5.8,0,0,1,5.79-5.79H642.87L434.47,327.37Z" transform="translate(-400 -178.14)"/><path class="cls-2" d="M641.31,179.14l-207,147.73h-28a5.29,5.29,0,0,1-5.29-5.29V184.43a5.29,5.29,0,0,1,5.29-5.29h235m3.12-1H406.29a6.29,6.29,0,0,0-6.29,6.29V321.58a6.29,6.29,0,0,0,6.29,6.29h28.34l209.8-149.73Z" transform="translate(-400 -178.14)"/><path class="cls-3" d="M516.17,327.37,696.07,199v122.6a5.8,5.8,0,0,1-5.79,5.79Z" transform="translate(-400 -178.14)"/><path class="cls-2" d="M695.57,200V321.58a5.29,5.29,0,0,1-5.29,5.29H517.73L695.57,200m1-1.94-182,129.86H690.28a6.29,6.29,0,0,0,6.29-6.29V198Z" transform="translate(-400 -178.14)"/><rect class="cls-4" x="105.36" y="47.61" width="39.86" height="12.36" rx="1.58"/><path class="cls-2" d="M543.63,226.25a1.08,1.08,0,0,1,1.08,1.08v9.2a1.08,1.08,0,0,1-1.08,1.08H506.94a1.08,1.08,0,0,1-1.08-1.08v-9.2a1.08,1.08,0,0,1,1.08-1.08h36.69m0-1H506.94a2.08,2.08,0,0,0-2.08,2.08v9.2a2.08,2.08,0,0,0,2.08,2.08h36.69a2.08,2.08,0,0,0,2.08-2.08v-9.2a2.08,2.08,0,0,0-2.08-2.08Z" transform="translate(-400 -178.14)"/><rect class="cls-5" x="196.39" y="132.04" width="95.21" height="12.36" rx="2.69"/><path class="cls-2" d="M688.91,310.68a2.2,2.2,0,0,1,2.2,2.19v7a2.21,2.21,0,0,1-2.2,2.2H599.09a2.21,2.21,0,0,1-2.2-2.2v-7a2.2,2.2,0,0,1,2.2-2.19h89.82m0-1H599.09a3.19,3.19,0,0,0-3.2,3.19v7a3.2,3.2,0,0,0,3.2,3.2h89.82a3.2,3.2,0,0,0,3.2-3.2v-7a3.19,3.19,0,0,0-3.2-3.19Z" transform="translate(-400 -178.14)"/><rect class="cls-5" x="9.14" y="27.82" width="95.21" height="12.36" rx="2.69"/><path class="cls-2" d="M501.66,206.46a2.21,2.21,0,0,1,2.2,2.2v7a2.2,2.2,0,0,1-2.2,2.19H411.84a2.2,2.2,0,0,1-2.2-2.19v-7a2.21,2.21,0,0,1,2.2-2.2h89.82m0-1H411.84a3.2,3.2,0,0,0-3.2,3.2v7a3.19,3.19,0,0,0,3.2,3.19h89.82a3.19,3.19,0,0,0,3.2-3.19v-7a3.2,3.2,0,0,0-3.2-3.2Z" transform="translate(-400 -178.14)"/><rect class="cls-6" x="9.14" y="9.43" width="136.07" height="12.36" rx="3.31"/><path class="cls-2" d="M541.9,188.07a2.81,2.81,0,0,1,2.81,2.81v5.74a2.81,2.81,0,0,1-2.81,2.81H412.45a2.81,2.81,0,0,1-2.81-2.81v-5.74a2.81,2.81,0,0,1,2.81-2.81H541.9m0-1H412.45a3.82,3.82,0,0,0-3.81,3.81v5.74a3.82,3.82,0,0,0,3.81,3.81H541.9a3.81,3.81,0,0,0,3.81-3.81v-5.74a3.81,3.81,0,0,0-3.81-3.81Z" transform="translate(-400 -178.14)"/></svg>