<svg id="Layer_3" data-name="Layer 3" xmlns="http://www.w3.org/2000/svg" viewBox="0 0 143.76 125.64"><defs><style>.cls-1{fill:#4d4d4d;}.cls-2{fill:#999;}.cls-3{fill:#ab5fff;}.cls-4{fill:#662d91;}.cls-5{fill:#9d1fff;}</style></defs><polygon class="cls-1" points="36.23 125.14 0.58 62.82 36.23 0.5 107.53 0.5 143.19 62.82 107.53 125.14 36.23 125.14"/><path class="cls-2" d="M701.39,96.55l35.37,61.82-35.37,61.82H630.67l-35.36-61.82,35.36-61.82h70.72m.58-1H630.09l-35.94,62.82,35.94,62.82H702l35.94-62.82L702,95.55Z" transform="translate(-594.15 -95.55)"/><polygon class="cls-3" points="106.61 85.99 98.73 25.01 116.16 89.98 53.49 103.32 106.61 85.99"/><path class="cls-2" d="M694.34,127.92l15.35,57.23L656.8,196.42l43.72-14.27.79-.26-.1-.82-6.87-53.15m-2.91-14.71,8.78,68L638.5,201.34l72.43-15.43-19.5-72.7Z" transform="translate(-594.15 -95.55)"/><polygon class="cls-3" points="25.47 33.47 88.13 20.12 35.01 37.46 42.89 98.43 25.47 33.47"/><path class="cls-2" d="M673.13,118.13,629.4,132.41l-.78.25.1.83,6.87,53.15L620.24,129.4l52.89-11.27m18.3-4.92L619,128.64l19.5,72.7-8.79-68,61.72-20.15Z" transform="translate(-594.15 -95.55)"/><polygon class="cls-4" points="40.14 119.16 12.9 69.67 44.08 112.74 95.64 119.16 40.14 119.16"/><path class="cls-2" d="M611.4,172.08l26.3,36.33.25.36.43,0,43.35,5.39H634.59L611.4,172.08m-8.69-13.71L634,215.21h63.86l-59.35-7.38-35.8-49.46Z" transform="translate(-594.15 -95.55)"/><polygon class="cls-5" points="99.77 14.93 47.12 7.66 103.2 7.66 130.89 56.26 99.77 14.93"/><path class="cls-2" d="M697.06,103.71l23.67,41.55-26.28-34.91-.25-.33-.42-.06-45.22-6.25h48.5m.58-1H634L693.65,111l35.71,47.42-31.72-55.66Z" transform="translate(-594.15 -95.55)"/></svg>