<svg id="Layer_5" data-name="Layer 5" xmlns="http://www.w3.org/2000/svg" viewBox="0 0 162.43 103.71"><defs><style>.cls-1{fill:#4d4d4d;}.cls-2{fill:#999;}.cls-3{fill:#ab5fff;}.cls-4{fill:#9d1fff;}.cls-5{fill:#662d91;}</style></defs><rect class="cls-1" x="0.5" y="0.5" width="161.43" height="102.71"/><path class="cls-2" d="M864,167.14V268.86H703.57V167.14H864m1-1H702.57V269.86H865V166.14Z" transform="translate(-702.57 -166.14)"/><rect class="cls-3" x="29.86" y="6.07" width="17.43" height="91.36"/><path class="cls-2" d="M749.36,172.71v90.36H732.93V172.71h16.43m1-1H731.93v92.36h18.43V171.71Z" transform="translate(-702.57 -166.14)"/><rect class="cls-4" x="6.29" y="6.07" width="17.43" height="91.36"/><path class="cls-2" d="M725.79,172.71v90.36H709.36V172.71h16.43m1-1H708.36v92.36h18.43V171.71Z" transform="translate(-702.57 -166.14)"/><rect class="cls-5" x="52.79" y="6.07" width="102.71" height="45.18"/><path class="cls-2" d="M857.57,172.71v44.18H755.86V172.71H857.57m1-1H754.86v46.18H858.57V171.71Z" transform="translate(-702.57 -166.14)"/></svg>