<svg id="Layer_6" data-name="Layer 6" xmlns="http://www.w3.org/2000/svg" viewBox="0 0 117.93 102.12"><defs><style>.cls-1{fill:#662d91;}.cls-2{fill:#999;}.cls-3{fill:#9d1fff;}.cls-4{fill:#ab5fff;}.cls-5{fill:#4d4d4d;}</style></defs><polygon class="cls-1" points="0.87 101.62 29.48 52.06 58.1 101.62 0.87 101.62"/><path class="cls-2" d="M777.53,347.39l27.76,48.06H749.78l27.75-48.06m0-2-29.48,51.06h59l-29.49-51.06Z" transform="translate(-748.05 -294.33)"/><polygon class="cls-3" points="30.36 50.56 58.97 1 87.58 50.56 30.36 50.56"/><path class="cls-2" d="M807,296.33l27.75,48.06h-55.5L807,296.33m0-2-29.48,51.06h59L807,294.33Z" transform="translate(-748.05 -294.33)"/><polygon class="cls-4" points="59.84 101.62 88.45 52.06 117.06 101.62 59.84 101.62"/><path class="cls-2" d="M836.5,347.39l27.75,48.06h-55.5l27.75-48.06m0-2L807,396.45h59L836.5,345.39Z" transform="translate(-748.05 -294.33)"/><polygon class="cls-5" points="30.35 51.56 87.58 51.56 58.97 101.12 30.35 51.56"/><path class="cls-2" d="M834.77,346.39,807,394.45l-27.76-48.06h55.51m1.73-1h-59L807,396.45l29.48-51.06Z" transform="translate(-748.05 -294.33)"/></svg>